<svg data-v-0dd9719b="" version="1.0" xmlns="http://www.w3.org/2000/svg" xmlns:xlink="http://www.w3.org/1999/xlink" width="100%" height="100%" viewBox="0 0 340.000000 250.000000" preserveAspectRatio="xMidYMid meet" color-interpolation-filters="sRGB" style="margin: auto;"> <rect data-v-0dd9719b="" x="0" y="0" width="100%" height="100%" fill="#fff" fill-opacity="1" class="background"></rect> <rect data-v-0dd9719b="" x="0" y="0" width="100%" height="100%" fill="url(#watermark)" fill-opacity="1" class="watermarklayer"></rect> <g data-v-0dd9719b="" fill="#65b888" class="icon-text-wrapper icon-svg-group iconsvg" transform="translate(48.660003662109375,95.89017677307129)"><g class="iconsvg-imagesvg" transform="translate(0,0)"><g><rect fill="#65b888" fill-opacity="0" stroke-width="2" x="0" y="0" width="60" height="58.219643307652" class="image-rect"></rect> <svg x="0" y="0" width="60" height="58.219643307652" filtersec="colorsb2235701164" class="image-svg-svg primary" style="overflow: visible;"><svg xmlns="http://www.w3.org/2000/svg" viewBox="0 0 45.840003967285156 44.47999954223633"><title>资源 7</title><g id="图层_2" data-name="图层 2"><g id="Layer_1" data-name="Layer 1"><polygon points="18.73 16.64 24.96 4.56 24.96 4.56 24.96 4.56 26.96 7.72 29.96 8.19 24.78 0 24.78 0 24.78 0 17.93 1.43 8.9 18.34 18.73 16.64" fill="#ff525a"></polygon><polygon points="28.14 17.81 41.55 20 39.16 22.88 39.64 25.88 45.84 18.42 42.36 12.35 23.48 8.99 28.14 17.81" fill="#f90"></polygon><polygon points="29.93 27.12 32 40.55 32 40.55 32 40.55 28.52 39.17 25.82 40.55 34.82 44.14 39.52 38.95 36.89 19.96 29.93 27.12" fill="#9a88e6"></polygon><polygon points="21.63 31.71 9.5 37.81 9.49 37.81 9.49 37.81 9.74 34.08 7.59 31.94 6.96 41.61 6.96 41.61 6.96 41.61 13.34 44.48 30.59 36.11 21.63 31.71" fill="#65b888"></polygon><polygon points="14.71 25.22 5.15 15.57 5.15 15.57 5.15 15.57 8.77 14.64 10.15 11.94 0.75 14.33 0.76 14.34 0.75 14.33 0 21.29 13.29 35.1 14.71 25.22" fill="#54bdf7"></polygon></g></g></svg></svg> <!----></g></g> <g transform="translate(67,3.2285709381103516)"><g data-gra="path-name" fill-rule="" class="tp-name iconsvg-namesvg" transform="translate(0,0)"><g transform="scale(1)"><g><path d="M25.15 1.8L8.59 2.16 3.51 2.16Q2.38 2.16 2.25 0.54L2.25 0.54 2.21-3.78Q2.29-4.32 2.7-4.46L2.7-4.46 3.15-4.5 3.19-14.17Q3.19-15.62 4.63-15.71L4.63-15.71 9.4-15.71Q11.29-15.71 11.29-14.17L11.29-14.17 11.29-5 13.28-5 13.28-15.03Q13.32-16.02 14.35-16.11L14.35-16.11 19.98-16.11Q21.11-16.11 21.11-15.03L21.11-15.03 21.11-14.31 24.16-14.31Q25.56-14.17 25.61-12.69L25.61-12.69 25.79-8.82Q25.83-8.19 25.47-7.88 25.11-7.56 24.48-7.56L24.48-7.56 21.06-7.56 21.06-5.49 24.93-5.49Q26.37-5.35 26.37-3.82L26.37-3.82 26.37-0.04Q26.37 1.53 25.15 1.8L25.15 1.8ZM41.71 2.29L41.71 2.29 31.81 2.29Q30.29 2.25 29.88 1.08L29.88 1.08 24.97-16.61 3.28-16.61Q2.16-16.74 2.16-17.91L2.16-17.91 2.16-23.8Q2.16-25.15 3.28-25.2L3.28-25.2 23.63-25.11 23.58-32.98Q23.58-34.16 24.79-34.29L24.79-34.29 31.09-34.29Q32.94-34.29 33.16-33.21L33.16-33.21 33.21-25.2 35.37-25.2 33.88-29.02Q33.62-29.43 33.62-30.11L33.62-30.11 33.62-32.58Q33.62-33.57 34.56-33.66L34.56-33.66 39.15-33.66Q39.87-33.57 40.27-33.21L40.27-33.21 42.34-28.13Q42.8-27.63 42.8-27L42.8-27 42.8-17.5Q42.8-16.61 41.94-16.61L41.94-16.61 34.42-16.61 37.3-7.29 41.45-7.29Q42.75-7.29 42.75-6.12L42.75-6.12 42.75 1.17Q42.75 2.29 41.71 2.29ZM20.79-26.05L20.79-26.05 4.54-26.1Q3.15-26.1 3.15-27.36L3.15-27.36 3.15-32.35Q3.15-33.66 4.46-33.66L4.46-33.66 20.61-33.62Q22.05-33.62 22.05-32.4L22.05-32.4 22.05-27.31Q22.05-26.1 20.79-26.05ZM86.81 2.29L86.81 2.29 79.25 2.29Q78.16 2.25 77.49 1.57L77.49 1.57 74.07-3.19 70.78 1.4Q70.29 2.29 69.21 2.29L69.21 2.29 61.34 2.29Q60.3 2.29 60.3 1.08L60.3 1.08 60.25-3.1Q60.25-3.6 60.41-4.14 60.57-4.68 60.98-5.17L60.98-5.17 65.84-11.16 61.47-16.92Q60.84-17.95 60.84-19.08L60.84-19.08 60.88-22.95Q60.88-23.71 61.74-23.76L61.74-23.76 68.49-23.76Q69.7-23.76 69.97-23.4L69.97-23.4 72.94-20.25 76.36-25.52 61.65-25.56Q60.44-25.56 60.44-26.41L60.44-26.41 60.34-33.25Q60.34-34.2 61.42-34.2L61.42-34.2 86.35-34.24Q87.75-34.16 87.84-33.03L87.84-33.03 87.8-23.98Q87.8-23.04 87.66-22.23L87.66-22.23Q87.66-21.87 81.09-11.79L81.09-11.79 87.25-4.95Q87.66-4.41 87.84-3.46L87.84-3.46 87.84 1.21Q87.8 2.21 86.81 2.29ZM57.87-12.38L57.87-12.38 52.38-12.38Q50.85-12.38 49.95-13.14L49.95-13.14 47.97-15.48Q47.56-15.97 47.41-16.56 47.25-17.14 47.2-17.77L47.2-17.77 47.25-21.55Q47.25-22.77 48.6-22.9L48.6-22.9 53.82-22.9Q55.39-22.86 56.3-22.23L56.3-22.23 58.63-19.75Q59.53-18.72 59.53-17.37L59.53-17.37 59.49-13.77Q59.49-12.42 57.87-12.38ZM55.71 2.38L55.71 2.38 49.14 2.38Q47.38 2.38 47.2 1.17L47.2 1.17 47.16-0.85Q47.25-2.43 47.88-4.77L47.88-4.77 49.77-10.57Q49.81-11.7 51.52-11.7L51.52-11.7 57.38-11.65Q59.13-11.65 59.31-10.39L59.31-10.39 59.31-8.05Q59.27-7.15 57.42 0.63L57.42 0.63Q56.79 2.38 55.71 2.38ZM57.96-23.63L57.96-23.63 52.38-23.63Q50.8-23.63 49.95-24.43L49.95-24.43 47.97-26.77Q47.56-27.27 47.41-27.86 47.25-28.44 47.2-29.07L47.2-29.07 47.25-32.89Q47.25-34.11 48.6-34.24L48.6-34.24 53.87-34.24Q55.44-34.2 56.34-33.57L56.34-33.57 58.68-31.09Q59.63-30.06 59.63-28.62L59.63-28.62 59.58-25.06Q59.58-23.67 57.96-23.63ZM100.22-14.45L100.22-14.45 96.21-14.45Q95.13-14.45 94.81-15.25L94.81-15.25 92.97-19.26Q92.75-19.8 92.61-20.65L92.61-20.65 92.61-22.41Q92.61-23.63 94.09-23.71L94.09-23.71 97.78-23.71Q98.91-23.67 99.36-22.99L99.36-22.99 101.3-19.84Q101.61-19.35 101.61-18.04L101.61-18.04 101.61-15.88Q101.61-14.49 100.22-14.45ZM129.74 2.34L129.74 2.34 120.51 2.29Q118.58 2.29 118.17 0.58L118.17 0.58 118.17-2.52 115.11-2.52Q113.63-2.52 113.49-4.14L113.49-4.14 113.44-8.14Q113.44-8.59 113.67-9.13L113.67-9.13 115.65-13.05Q115.92-13.59 117.22-13.59L117.22-13.59 121.36-13.59Q122.4-13.54 122.49-12.24L122.49-12.24 122.49-8.78Q122.49-8.1 122.33-7.79 122.17-7.47 122.04-7.11L122.04-7.11 124.06-7.11 124.06-25.15 114.08-25.15Q112.86-25.15 112.86-26.5L112.86-26.5 112.86-32.8Q112.86-34.24 113.98-34.24L113.98-34.24 130.55-34.2Q132.66-34.2 132.75-32.49L132.75-32.49 132.62 0.27Q132.62 2.29 129.74 2.34ZM121.09-14.71L121.09-14.71 117.09-14.71Q115.97-14.71 115.78-15.39L115.78-15.39 113.98-19.26Q113.63-20.02 113.53-20.88L113.53-20.88 113.53-22.68Q113.53-23.89 114.93-23.94L114.93-23.94 118.71-23.94Q119.83-23.89 120.24-23.27L120.24-23.27 122.13-20.11Q122.53-19.48 122.53-18.22L122.53-18.22 122.49-16.11Q122.44-14.76 121.09-14.71ZM109.17 2.25L109.17 2.25 99.54 2.21Q97.56 2.21 97.56 0.54L97.56 0.54 97.56-2.34 94.19-2.34Q92.7-2.34 92.56-3.92L92.56-3.92 92.52-7.88Q92.52-8.37 92.79-8.87L92.79-8.87 94.86-12.82Q95.04-13.37 96.3-13.37L96.3-13.37 100.53-13.37Q101.52-13.23 101.61-11.92L101.61-11.92 101.61-8.55Q101.61-7.88 101.2-7.15L101.2-7.15 103.45-7.15 103.45-25.15 93.47-25.15Q92.25-25.15 92.25-26.5L92.25-26.5 92.25-32.8Q92.25-34.24 93.38-34.24L93.38-34.24 109.94-34.2Q112.05-34.2 112.14-32.49L112.14-32.49 112.05 0.18Q112.05 2.21 109.17 2.25ZM147.78-25.06L166.63-25.06 166.63-26.05 147.78-26.05 147.78-25.06ZM147.78-29.11L166.59-29.11 166.59-30.11 147.78-30.11 147.78-29.11ZM174.42-21.29L139.86-21.24Q138.06-21.29 138.06-22.72L138.06-22.72 137.93-32.35Q137.84-34.2 139.63-34.2L139.63-34.2 174.56-34.16Q176.49-34.16 176.49-32.35L176.49-32.35 176.49-23.49Q176.49-21.29 174.42-21.29L174.42-21.29ZM176.18 2.52L176.18 2.52 171.81 2.52Q170.69 2.52 169.88 2.16L169.88 2.16 157.77-5.26 155.97-5.26 155.97-1.75 160.29-1.67Q161.06-1.57 161.1-1.08L161.1-1.08 161.15 1.26Q160.97 1.93 160.25 1.98L160.25 1.98Q156.47 2.21 154.37 2.34 152.28 2.48 151.78 2.48L151.78 2.48Q149.13 2.48 148.95 1.21L148.95 1.21 148.95-5.26 148.19-5.26Q146.52-5.26 146.52-6.12L146.52-6.12 146.52-8.91Q146.52-9.67 148.05-9.67L148.05-9.67 176.49-9.67Q177.75-9.67 177.84-8.78L177.84-8.78 177.84-6.12Q177.84-5.26 176.58-5.26L176.58-5.26 167.31-5.26 170.1-4Q170.1-4.46 171.94-4.46L171.94-4.46 175.68-4.46Q176.99-4.46 177.03-3.87L177.03-3.87 177.03-2.79Q177.03-2.25 176.42-2.07 175.81-1.89 175.19-1.71L175.19-1.71 176.72-0.77Q177.34-0.49 177.39 0.09L177.39 0.09 177.39 1.67Q177.39 2.48 176.18 2.52ZM175.37-10.53L175.37-10.53 149.31-10.57Q148.05-10.57 147.96-11.21L147.96-11.21 147.96-14.26Q147.96-14.85 149.22-14.85L149.22-14.85 175.28-14.85Q176.63-14.85 176.63-14.17L176.63-14.17 176.67-11.25Q176.67-10.53 175.37-10.53ZM144.59 2.43L144.59 2.43 138.47 2.38Q137.84 2.38 137.52 2.11 137.21 1.84 137.21 1.44L137.21 1.44 137.16-1.13 137.79-19.62Q138.01-20.52 139.46-20.52L139.46-20.52 175.95-20.56Q177.66-20.47 177.66-19.62L177.66-19.62 177.66-16.52Q177.66-15.71 176.18-15.71L176.18-15.71 146.25-15.62 145.8 1.44Q145.75 2.43 144.59 2.43Z" transform="translate(-2.1600000858306885, 34.290000915527344)"></path></g> <!----> <!----> <!----> <!----> <!----> <!----> <!----></g></g> <g data-gra="path-slogan" fill-rule="" class="tp-slogan iconsvg-slogansvg" fill="#65b888" transform="translate(5,42.810001373291016)"><rect x="0" height="1" y="3.9750003814697266" width="30.924999237060547"></rect> <rect height="1" y="3.9750003814697266" width="30.924999237060547" x="134.7549934387207"></rect> <g transform="translate(33.92499923706055,0)"><g transform="scale(1)"><path d="M5.67-7.13L5.63-7.13L3.66 0L2.44 0L0.19-8.58L1.41-8.58L3.05-1.59L3.09-1.59L5.02-8.58L6.28-8.58L8.20-1.59L8.25-1.59L9.84-8.58L11.11-8.58L8.86 0L7.64 0L5.67-7.13ZM17.86-3.19L17.86-8.58L19.03-8.58L19.03-3.05Q18.89 0.05 15.52 0.14L15.52 0.14Q12.38 0.05 12.23-2.86L12.23-2.86L12.23-8.58L13.41-8.58L13.41-3.19Q13.45-0.84 15.56-0.80L15.56-0.80Q17.86-0.84 17.86-3.19L17.86-3.19ZM21.98-5.06L26.48-5.06L26.48-8.58L27.66-8.58L27.66 0L26.48 0L26.48-3.98L21.98-3.98L21.98 0L20.81 0L20.81-8.58L21.98-8.58L21.98-5.06ZM35.11 0L34.27-2.48L30.80-2.48L29.91 0L28.73 0L31.97-8.58L33.28-8.58L36.38 0L35.11 0ZM32.53-7.31L31.17-3.52L33.84-3.52L32.58-7.31L32.53-7.31ZM38.81-8.58L43.13-1.64L43.13-8.58L44.25-8.58L44.25 0L42.94 0L38.58-6.94L38.53-6.94L38.53 0L37.41 0L37.41-8.58L38.81-8.58ZM56.30-8.58L53.06-3.47L53.06 0L51.89 0L51.89-3.47L48.66-8.58L50.02-8.58L52.45-4.45L54.94-8.58L56.30-8.58ZM63-3.19L63-8.58L64.17-8.58L64.17-3.05Q64.03 0.05 60.66 0.14L60.66 0.14Q57.52 0.05 57.38-2.86L57.38-2.86L57.38-8.58L58.55-8.58L58.55-3.19Q58.59-0.84 60.70-0.80L60.70-0.80Q63-0.84 63-3.19L63-3.19ZM73.13-6.05L73.13-6.05L72-6.05Q71.58-7.78 69.61-7.83L69.61-7.83Q66.89-7.69 66.80-4.36L66.80-4.36Q66.80-0.80 69.66-0.80L69.66-0.80Q71.63-0.84 72.09-3.19L72.09-3.19L73.22-3.19Q72.70 0.05 69.42 0.14L69.42 0.14Q65.67 0 65.58-4.31L65.58-4.31Q65.77-8.63 69.61-8.81L69.61-8.81Q72.66-8.72 73.13-6.05ZM75.75-5.06L80.25-5.06L80.25-8.58L81.42-8.58L81.42 0L80.25 0L80.25-3.98L75.75-3.98L75.75 0L74.58 0L74.58-8.58L75.75-8.58L75.75-5.06ZM84.52-1.03L89.67-1.03L89.67 0L83.34 0L83.34-8.58L89.58-8.58L89.58-7.59L84.52-7.59L84.52-4.92L89.20-4.92L89.20-3.89L84.52-3.89L84.52-1.03ZM92.58-8.58L96.89-1.64L96.89-8.58L98.02-8.58L98.02 0L96.70 0L92.34-6.94L92.30-6.94L92.30 0L91.17 0L91.17-8.58L92.58-8.58Z" transform="translate(-0.1875, 8.8125)"></path></g></g></g></g></g><defs v-gra="od"></defs></svg>